<svg xmlns="http://www.w3.org/2000/svg" viewBox="0 0 920 320" role="img" aria-label="Up and Down">
  <path fill="#ffffff" fill-rule="evenodd" d="M 896 278 L 893 274 L 891 274 L 888 276 L 854 285 L 828 289 L 827 290 L 810 291 L 809 292 L 764 293 L 763 292 L 746 292 L 745 291 L 726 290 L 719 288 L 700 286 L 695 284 L 689 284 L 684 282 L 671 280 L 667 278 L 663 278 L 633 268 L 610 262 L 607 260 L 594 257 L 581 252 L 578 252 L 575 250 L 572 250 L 569 248 L 566 248 L 524 234 L 522 232 L 522 94 L 521 93 L 522 88 L 521 87 L 523 85 L 535 81 L 550 78 L 556 78 L 557 77 L 591 77 L 598 79 L 604 79 L 627 85 L 637 85 L 638 86 L 654 85 L 666 81 L 680 73 L 697 59 L 704 51 L 663 50 L 646 45 L 630 37 L 590 12 L 568 4 L 563 4 L 558 2 L 550 2 L 544 0 L 510 0 L 510 223 L 508 228 L 503 228 L 499 226 L 486 224 L 482 222 L 470 220 L 466 218 L 461 218 L 456 216 L 450 216 L 449 215 L 436 214 L 428 212 L 409 211 L 408 210 L 349 210 L 348 211 L 327 212 L 326 213 L 312 214 L 311 215 L 288 218 L 283 220 L 277 220 L 227 232 L 160 254 L 144 258 L 135 262 L 125 264 L 109 270 L 58 282 L 17 288 L 15 293 L 18 297 L 23 297 L 24 296 L 45 295 L 52 293 L 70 291 L 121 278 L 136 273 L 140 273 L 166 265 L 170 265 L 174 263 L 185 261 L 189 259 L 201 257 L 212 253 L 216 253 L 227 249 L 231 249 L 235 247 L 255 243 L 259 241 L 264 241 L 269 239 L 274 239 L 290 235 L 297 235 L 303 233 L 311 233 L 312 232 L 327 231 L 336 229 L 351 229 L 352 228 L 413 229 L 414 230 L 430 231 L 431 232 L 437 232 L 453 235 L 501 247 L 517 253 L 520 253 L 523 255 L 526 255 L 529 257 L 533 257 L 536 259 L 551 263 L 554 265 L 557 265 L 585 275 L 588 275 L 591 277 L 594 277 L 597 279 L 612 283 L 615 285 L 618 285 L 636 291 L 648 293 L 660 297 L 665 297 L 669 299 L 675 299 L 679 301 L 698 303 L 704 305 L 714 305 L 722 307 L 769 308 L 770 307 L 789 307 L 790 306 L 821 303 L 871 291 L 894 283 Z"/>
</svg>
